<?xml version="1.0" encoding="UTF-8"?>
<svg width="400" height="400" version="1.1" viewBox="0 0 105.83 105.83" xmlns="http://www.w3.org/2000/svg">
<path d="m43.992 34.298c-6.6097-2.7408-10.749-13.007-8.0231-19.822 2.4821-6.2053 21.791-9.5364 27.845-8.0231 8.8311 2.2078 8.154 16.193 7.5511 23.125-0.40954 4.7096-2.6894 9.8206-1.8878 14.63 1.184 7.1043 5.3131 10.805 9.4389 16.518 1.9166 2.6538 3.533 5.5376 5.6633 8.0231 2.1808 2.5443 8.4875 5.3061 6.6072 10.383-0.59259 1.6-5.2824 8.7981-8.9669 9.4389-2.4798 0.43127-5.0354-0.08116-7.5511 0-7.8883 0.25446-15.691 0.94389-23.597 0.94389-1.1331 0-11.259-0.25636-13.686 0.47194-1.5513 0.46541-2.9828 1.3479-4.2475 2.3597-2.2485 1.7988-5.6903 9.1883-9.9108 4.7194-8.9463-9.4726 1.031-13.737 5.6633-21.238 2.7789-4.4992 3.4145-10.096 6.1353-14.63 1.6842-2.807 4.0392-5.1809 5.6633-8.0231 4.4115-7.7202-1.8495-13.98 2.3597-20.294" fill="current" stroke="current" stroke-width="1.34924px"/>
<path d="m38.963 73.067c8.1313-1.2017 16.418 0.79522 24.569 0 2.7306-0.2664 5.3632-1.1596 8.0448-1.7394" fill="current" stroke="current" stroke-width="1.34924px"/>
<path d="m51.357 34.582c6.6768 0 3.6625 0.77789 9.132-1.9568" fill="current" stroke="current" stroke-width="1.34924px"/>
</svg>
