<?xml version="1.0" encoding="UTF-8"?>
<svg width="400" height="400" version="1.1" viewBox="0 0 105.83 105.83" xmlns="http://www.w3.org/2000/svg">
<path d="m23.511 42.557c13.828-6.312 10.176-3.1139 19.515-28.766 1.2942-3.5549 0.26-7.5646 0.21198-11.347-0.003232-0.25521-0.40892-0.92468-0.3646-0.67332 0.07147 0.4053 0.2107 0.81448 0.44869 1.1502 7.5151 10.602 13.8 22.247 22.789 31.633 3.4072 3.5576 17.43 9.0691 13.394 6.2437" fill="current" stroke="current" stroke-width="1.38892px"/>
<path d="m36.062 60.751c0.31314 0.84631 0.81572 1.6451 0.93942 2.5389 0.4778 3.4527 1.0731 6.9431 0.85417 10.422-0.11128 1.7685-1.1784 3.3431-1.8241 4.9932-2.6342 6.731-4.4371 11.402-10.831 16.662-1.2605 1.0371-4.095 1.5482-4.8953 0.12556-5.2456-9.325 6.69-12.79 12.205-14.446 7.2239-2.1686 10.347 1.91 16.915 3.9017 2.4799 0.75203 24.914 4.6976 24.924 4.7024 1.4217 0.62378 2.8019 3.5372 1.5143 4.4045-11.951 8.0498-19.42 8.3787-20.688-7.1704-0.38493-4.7216 1.8843-9.2969 3.214-13.844 0.87418-2.9893 2.1139-5.8652 3.3816-8.71 0.32523-0.72982 0.77745-1.433 1.3749-1.9635 0.36709-0.326 0.9258-0.32716 1.3887-0.49073" fill="current" stroke="current" stroke-width="1.38892px"/>
<path d="m41.241 39.923c-0.57982 0.43007-1.5502 0.59355-1.7395 1.2902-1.4801 5.4473 6.4958 4.0144 6.4101 0.09908-0.01-0.45647-0.74801-0.52376-1.122-0.78564" fill="current" stroke="current" stroke-width="1.38892px"/>
<path d="m52.327 39.709c-1.8858-0.21925-3.481 2.8073-1.1834 3.7879 2.4907 1.063 7.3478 1.5215 8.9352-1.8224 1.6135-3.3988-2.5367-2.5807-3.2385-2.2676-0.26164 0.1167-0.32864 0.46935-0.49296 0.70403" fill="current" stroke="current" stroke-width="1.38892px"/>
</svg>
