<?xml version="1.0" encoding="UTF-8"?>
<svg width="400" height="400" version="1.1" viewBox="0 0 105.83 105.83" xmlns="http://www.w3.org/2000/svg">
<g fill="current" stroke="current" stroke-width="1.526458px">
<path d="m50.717 17.719c-9.2024 0.22029-18.376 1.0694-27.53 1.9834-2.4246 0.25312-4.958 0.47453-7.079 1.7963-3.9689 2.3178-6.1875 6.7618-6.9951 11.156-0.78771 4.4324-0.45587 9.2296 1.6982 13.248 1.8157 3.2136 5.4048 4.9171 8.9096 5.5695 5.5494 1.0721 11.225 0.40852 16.829 0.35202 5.5656-0.19671 11.175-0.64696 16.549-2.193-0.45645 0.3912-0.91276 0.78255-1.3691 1.1738 1.2841 0.03764 2.6754 0.06098 3.7027 0.95505 2.2458 1.7877 3.513 4.5316 4.2778 7.2374 0.41938 1.7136 0.45537 3.4825 0.40652 5.2332-0.17398 1.851-1.3823 3.3892-2.4073 4.8676-4.613 6.0148-11.194 10.308-15.702 16.464-1.3179 1.879-2.51 3.9855-2.7584 6.3029 0.17477 2.0017 1.3067 3.7849 2.4805 5.3594 1.2008 1.422 3.0922 2.0648 4.9174 2.0431 6.997 0.49387 14.071 0.86867 21.045-0.08623 8.2063-1.2483 16.146-3.7513 24.205-5.6763 0.68906-0.18555 1.5331-0.35554 1.7352-1.1517 0.09192-0.38152-0.88097-0.36076-1.2617-0.2994-1.4876 0.14631-2.8939 0.51414-4.3559 0.34827-1.1994-0.88788-1.2953-2.5486-1.4739-3.9103-0.22219-2.4306 0.15422-4.8581 0.0781-7.2912-0.0051-3.6315 0.44975-7.194 1.4337-10.698 0.89068-3.4517 2.462-6.7344 2.7963-10.319 0.62363-5.3878 0.41578-10.879-0.5771-16.21-0.40722-2.4055-1.286-4.7011-2.5049-6.8101-1.1849-1.9752-1.827-4.2293-3.0963-6.1538-2.2929-3.1037-6.0389-4.5643-8.6595-7.3223-1.1963-1.261-2.677-2.1981-4.291-2.8302-6.5936-2.8395-13.916-3.2492-21.002-3.1381z"/>
<path d="m54.799 8.0469c-2.2719 0.072456-4.7281 1.0538-5.7559 3.2129-1.2879 2.7487-0.63696 5.9088 0.15039 8.7031 0.74279 2.4725 1.7765 4.8447 2.8945 7.168 6.8289-1.2944 13.657-2.5911 20.486-3.8848 0.26348-2.2456 1.8952-4.1912 1.6965-6.5052-0.19198-1.4504-1.6519-2.1758-2.6882-2.9896-3.8376-2.5762-8.1756-4.4549-12.709-5.3775-1.3404-0.2558-2.7095-0.39661-4.0748-0.32691z"/>
<path d="m26.379 31.301c-1.7748 0.05509-3.5866 0.56554-5.3379 0.05078-0.42568 1.6759-0.98145 3.726 0.18359 5.2363 1.1836 1.3575 3.247 1.0283 4.7402 0.43945 1.5237-0.6542 3.193-1.5697 3.8438-3.1836 0.36861-1.2632-0.94698-2.3101-2.0859-2.4648-0.44316-0.07712-0.895-0.08732-1.3438-0.07813z"/>
<path d="m37.527 32.527c-0.63018 0.3145-1.2601 0.62955-1.8906 0.94336 1.2017 1.7577 2.2377 4.0305 4.4575 4.6699 1.4171 0.37768 2.9908 0.18752 4.3159-0.39642 1.0083-0.85755 0.63627-2.4338 0.06641-3.4453-0.92882-1.4617-2.8699-1.5943-4.4355-1.6582-0.81715 0.01436-1.6385-0.1289-2.4525-0.14427z"/>
</g>
</svg>
