<?xml version="1.0" encoding="UTF-8"?>
<svg width="400" height="400" version="1.1" viewBox="0 0 105.83 105.83" xmlns="http://www.w3.org/2000/svg">
<path d="m25.682 86.437c-0.70274-6.2608-1.1073-12.562-2.1082-18.782-3.4673-21.547-5.4621-35.456-9.9662-53.472-0.03465-0.13859 0.09065 0.2823 0.19166 0.38331 0.34588 0.34588 0.41359 0.60525 0.76663 0.95828 1.2777 1.2777 2.7348 2.3983 3.8331 3.8331 4.8521 6.339 16.999 25.341 19.549 30.473 1.6906 3.4032 2.2533 7.2597 3.2582 10.924 0.08447 0.30806 0.26578 0.7811 0 0.95828-0.22552 0.15035-0.47072-0.32478-0.57497-0.57497-0.22654-0.54369-0.39016-1.136-0.38331-1.7249 0.05724-4.9226 0.48655-9.8355 0.57497-14.758 0.35511-19.768-0.65142-11.252 0.38332-21.082 0.0067-0.06353-0.04518 0.14648 0 0.19166 0.04517 0.04517 0.15502-0.05234 0.19166 0 0.8739 1.2484 1.7871 2.4818 2.4915 3.8331 8.3663 16.05 6.7025 10.919 8.6246 27.79 0.05785 0.5078 0.48486 1.3716 0 1.5333-0.46157 0.15386-0.69183-0.8693-0.57497-1.3416 1.4418-5.8272 1.8688-12.239 5.1747-17.249 5.1006-7.7306 12.75-13.442 19.357-19.932 0.63315-0.62195 1.4658-1.0383 2.2999-1.3416 0.18986-0.06904-0.14783 0.37776-0.19166 0.57497-0.0843 0.37935-0.06203 0.7836-0.19166 1.1499-2.8112 7.9446-6.6911 15.563-8.6246 23.765-2.3071 9.7878-2.9031 19.905-4.0248 29.898-0.28513 2.5403 0.22858 5.1448-0.19166 7.6663-0.06725 0.4035-0.57021-0.63727-0.95829-0.76663-0.6091-0.20303-1.2777-0.12777-1.9166-0.19166-2.811-1.2138-5.6714-2.3191-8.4329-3.6415-1.7797-0.85225-3.2485-2.4468-5.1747-2.8749-0.71106-0.15801-1.1247 0.92894-1.7249 1.3416-2.4676 1.6964-4.8635 3.5172-7.4746 4.9831-2.4216 1.3595-5.223 1.2458-7.8579 1.7249" fill="current" stroke="current" stroke-width="1.26458px"/>
<path d="m41.015 89.695c-4.7355 5.1473-10.187 8.5337 6.5163 5.7497 0.5785-0.09642 0.96043-3.0644 0.19166-3.8331-0.67299-0.67299-1.3008-0.75643-2.1082-0.95829" fill="current" stroke="current" stroke-width="1.26458px"/>
<path d="m58.072 90.462c-7.79 2.6862-12.761 3.5408 8.4329 3.2582 0.52677-7e-3 0.65941-1.0846 0.38331-1.5333-0.37434-0.60831-1.2777-0.63886-1.9166-0.95828-0.38331-0.19166-0.76663-0.38331-1.1499-0.57497" fill="current" stroke="current" stroke-width="1.26458px"/>
<path d="m47.339 100.81c1.7309 0.72614 3.2582 1.6344 3.2582-0.38332 0-0.0639-0.04517 0.14648 0 0.19166 0.41648 0.41648 0.772 1 1.3416 1.1499 2.329 0.61289 2.2424-0.091 3.0665-1.5333" fill="current" stroke="current" stroke-width="1.26458px"/>
</svg>
