<?xml version="1.0" encoding="UTF-8"?>
<svg width="400" height="400" version="1.1" viewBox="0 0 105.83 105.83" xmlns="http://www.w3.org/2000/svg">
<path d="m31.413 52.748c-0.19166-1.4694 0.46414-3.3517-0.57497-4.4081-7.0325-7.1498-16.082-10.539-26.257-8.0496-1.8873 0.4618-1.7338 3.4795-2.6832 5.1747-0.06243 0.11148-0.057999-0.26946 0-0.38331 1.6734-3.2849 2.275-7.498 5.1747-9.7745 6.749-5.2983 19.128-9.6198 27.215-3.2582 2.2556 1.7744 1.7201 5.477 2.4915 8.2412 0.01717 0.06153-0.19166 0.06388-0.19166 0 0-0.32576 0.17751-0.63284 0.19166-0.95828 0.04995-1.1489 0.27566-2.3334 0-3.4498-1.4779-5.9856-2.5905-16.291-11.499-16.291-0.19166 0 0.38686-0.0367 0.57497 0 5.0541 0.98617 11.601-0.67324 15.141 3.0665 5.4234 5.7296 5.8544 14.654 8.6246 22.041 0.11216 0.29909 0 0.63886 0 0.95828v-0.38332c0-0.70274-0.12571-1.4168 0-2.1082 0.58515-3.2183 2.8758-9.6333 2.1082-13.033-0.49921-2.2108-5.6821-8.3749-7.4746-9.5828-1.3403-0.90322-3.0791-0.98582-4.5998-1.5333-0.08501-0.0306-0.24618-0.11961-0.19166-0.19166 1.7821-2.355 2.8989-5.6149 5.5581-6.8997 9.1057-4.3994 15.725-0.38975 22.807 5.1747 2.8554 2.2435 2.5 2.8495 1.9166 4.5998-1.9805 0.19166-4.1773-0.3454-5.9414 0.57497-1.4617 0.76263-2.3345 2.4672-2.8749 4.0248-0.58781 1.6943-0.38331 3.573-0.38331 5.3664 0 0.90348 0.17132 1.8049 0.38331 2.6832 1.2171 5.0423 3.5349 5.991 8.0496 8.6246 0.54349 0.31704 1.1199 0.59377 1.7249 0.76663 0.17374 0.04964-0.3589-0.20428-0.38331-0.38331-0.36418-2.6706-1.6347-5.4979-0.76663-8.0496 1.3639-4.0091 3.9854-7.6625 7.0913-10.541 2.3268-2.1565 5.679-2.8466 8.6246-4.0248 0.30246-0.12098 1.0078-0.13031 0.95828 0.19166-0.13496 0.87721-0.99047 1.4848-1.3416 2.2999-1.4409 3.3449-3.2913 6.5904-4.0248 10.158-0.6949 3.3797-0.57799 6.9208-0.19166 10.349 0.13759 1.2211 0.85597 4.1271 1.7249 3.2582 1.4185-1.4185-0.44237-4.5053 0.95828-5.9414 3.9837-4.0845 9.1326-6.9277 14.183-9.5828 1.3018-0.68445 2.9497-0.38188 4.4081-0.19166 0.25339 0.03305 0.0734 0.52186 0 0.76663-0.50508 1.6836-1.1948 3.3072-1.7249 4.9831-1.4506 4.5857-3.3591 9.0666-4.2165 13.799-0.19166 4.2165-0.38331 8.4329-0.57497 12.649 0.06389 0.19166 0.19166 0.37295 0.19166 0.57497 0 0.06389-0.13105 0.0202-0.19166 0-0.90099-0.30033-1.7636-0.72097-2.6832-0.95828-7.5158-1.9396-14.185-3.0665-21.849-3.0665-1.3416 0-2.6901-0.13573-4.0248 0-2.63 0.26746-13.818 2.3092-15.908 2.6832-4.034 0.72188-11.365 1.608-15.524 3.6415-3.7822 1.8491-3.6384 5.1596-6.133 8.2412-1.0295 1.2718-2.5456 2.0567-3.8331 3.0665-1.9708 1.5457-4.1486 2.8507-5.9414 4.5998-0.8628 0.84175-1.2964 2.0329-1.9166 3.0665-0.53 0.88332-0.97796 1.8156-1.5333 2.6832-0.4684 0.73188-1.1447 1.331-1.5333 2.1082-0.51506 1.0301-0.76663 2.1721-1.1499 3.2582" fill="current" stroke="current" stroke-width="1.26458px"/>
<path d="m73.003 78.621c3.7054-0.63886 7.424-1.2048 11.116-1.9166 1.6128-0.3109 3.2068-0.71777 4.7914-1.1499 0.1849-0.05043-0.4155-0.10631-0.57497 0-0.10631 0.07087 0 0.25554 0 0.38331-0.76663 0.63886-1.4536 1.3877-2.2999 1.9166-3.622 2.2637-8.2666 3.6884-12.074 1.1499" fill="current" stroke="current" stroke-width="1.26458px"/>
<path d="m44.637 79.005c3.2582 0 6.5166-0.03973 9.7745 0 1.9813 0.02416 3.9798-0.08857 5.9414 0.19166 0.26832 0.03833-0.32155 0.47884-0.57497 0.57497-1.6249 0.61635-3.2688 1.2476-4.9831 1.5333-3.6615 0.61025-7.08-0.45318-10.158-2.2999z" fill="current" stroke="current" stroke-width="1.26458px"/>
<path d="m64.57 85.713c0.63886-0.8944 1.2777-1.7888 1.9166-2.6832 0.06388-0.06389 0.10131-0.19166 0.19166-0.19166 0.06389 0-0.04517 0.14648 0 0.19166 0.59876 0.59876 2.2999 1.0308 2.2999 1.9166" fill="current" stroke="current" stroke-width="1.26458px"/>
</svg>
