<?xml version="1.0" encoding="UTF-8"?>
<svg width="400" height="400" version="1.1" viewBox="0 0 105.83 105.83" xmlns="http://www.w3.org/2000/svg">
<path d="m22.296 88.433c-3.8896-11.538-8.3336-22.819-11.428-34.642-3.6947-14.116-10.2-32.584-6.0713-48.213 0.3964-1.5007 2.3827-2.3594 3.9285-2.4999 0.71133-0.064662 0 1.4285 0 2.1428v2.4999c0 8.0814-1.8944 8.783 6.0713 8.2141 0.11874-0.0084 0-0.23809 0-0.35714v-9.6426c0-0.23809-0.23505-0.67636 0-0.71427 3.6603-0.59037 7.3763-0.7635 11.071-1.0714 3.7028-0.30857 1.5477 0.35688 0 4.9999-0.03083 0.092389-2.4176 5.8561-0.35713 6.4284 1.8672 0.51867 3.7858-0.87857 5.7141-1.0714 4.0344-0.40344 8.378 0.79154 12.143-0.71427 1.1904-0.47618-0.67785-2.5319-1.4285-3.5713-3.6659-5.0758-11.579-4.7571 10.357-3.5713 0.47548 0.0257 0 0.95236 0 1.4285 0 2.9761-1.331 6.2664 0 8.9283 0.69414 1.3883 3.1001 0.18572 4.6427 0.35713 3.8156 0.42396 8.0822 3.3107 11.428 1.4285 2.2826-1.284 0-5.238 0-7.8569 0-0.47618-0.42591-1.2156 0-1.4285 0.85181-0.42591 1.9053 0.034023 2.8571 0 2.3823-0.085074 5.9071-2.3958 7.1427-0.35714 2.0978 3.4614 0 8.095 0 12.143 0 0.71427-0.66666 1.8864 0 2.1428 1.4487 0.55719 3.0914-0.30542 4.6427-0.35714 2.0226-0.06741 5.4935 1.9395 6.0713 0 1.6005-5.3732-4.5737-12.407-1.0714-16.785 2.6544-3.318 8.3373 1.6461 12.5 2.4999 0.48082 0.098626 1.1219-0.026125 1.4285 0.35713 0.29746 0.37183-0.0474 0.95472 0 1.4285 1.8275 18.275 3.9736 16.159-3.2142 34.642-3.2068 8.246-11.786 21.01-17.5 27.499-3.3397 3.7926-7.2738 7.0226-11.071 10.357-1.0919 0.95877-2.3809 1.6666-3.5713 2.4999-2.0238 2.0238-3.9871 4.1097-6.0713 6.0713-0.08668 0.08158 0.02333-0.2404 0-0.35714-0.13895-0.69482-0.79304-1.3891 0-1.7857 4.016-2.008 6.9275 6.2862 3.9285 8.2141-2.5997 1.6713-5.8978 1.8938-8.9283 2.4999-0.59522 0.11905-1.7391 0.24809-1.7857-0.35713-0.2299-2.9886 0.83237-5.9404 1.0714-8.9283 0.0095-0.11865-0.23819-0.0048-0.35714 0-2.7382 0.11409-5.9689-1.2145-8.2141 0.35713-12.279 8.5953 12.226 0.85466 1.7857 8.5712-2.4613 1.8192-5.913 2.6672-8.9283 2.1428-1.1961-0.20801 0.5802-2.3647 0.71427-3.5713 0.22387-2.0149 0.92916-4.1264 0.35714-6.0713-0.20154-0.68524-1.4285 0-2.1428 0-3.3332 0-7.205-1.8166-9.9997 0-1.5236 0.99032 2.219 2.9413 2.8571 4.6427 0.46169 1.2312 0.7031 2.6599 0.35714 3.9285-0.1253 0.4594-0.95884-0.0783-1.4285 0-3.8231 0.63718-7.615 1.4495-11.428 2.1428-0.11712 0.0213-0.30389 0.10648-0.35713 0-0.33716-0.6743 3.5935-10.077 4.2856-12.5 0.19622-0.68679 0-1.4285 0-2.1428z" fill="current" stroke="current" stroke-width="1.49301px"/>
</svg>
